<svg width="268" height="75" viewBox="0 0 268 75" fill="none" xmlns="http://www.w3.org/2000/svg">
<path d="M154 43C120.045 43 86.2859 44.9723 52.5 48.3889C48.2191 48.8218 43.9303 49.1988 39.6667 49.7778C37.9249 50.0143 35.5547 49.4271 34.5 50.8333C33.7198 51.8735 37.0347 51.4913 38.3333 51.5556C44.1606 51.8439 49.9992 51.8333 55.8333 51.8889C100.01 52.3096 144.332 52.7848 188.5 51.6667C208.131 51.1697 227.041 48.845 246.444 46.3889C256.217 45.1519 227.127 50.2932 217.389 51.7778C152.697 61.6403 87.8192 64.8443 22.7222 70.1667C15.3973 70.7656 14.8695 70.9807 28.4444 68.9445C53.2159 65.2287 66.4521 63.264 93.1667 60.1667C138.879 54.8667 184.605 52.0464 230.5 49.1667C284.728 45.7641 121.835 48 67.5 48C64.2687 48 40.727 48.1015 33.8889 47.8333C28.0875 47.6058 26.2052 47.5219 33.5 45.5C77.8759 33.2002 125.241 29.0201 170.944 25.5C201.017 23.1838 231.275 22 261.444 22C279.889 22 224.555 22.0032 206.111 22.0556C163.251 22.1771 120.277 21.8464 77.4444 23.6667C54.1116 24.6583 32.2025 27.78 9.77777 34C8.18628 34.4414 6.47177 34.6503 5.05555 35.5C4.63362 35.7532 5.95271 35.9823 6.44444 36C19.0659 36.4544 31.7037 36 44.3333 36C89.8519 36 135.37 36 180.889 36C182.667 36 188 36 186.222 36C183.481 36 180.741 36 178 36C161.148 36 144.296 35.9674 127.444 36C114.674 36.0247 89.7116 36.06 76 36.4444C73.9501 36.5019 61.0236 36.8302 56.7778 38C39.3501 42.8015 92.8552 35.3578 110.778 33C153.904 27.3264 197.18 21.8123 240.111 14.7778C305.373 4.08422 108.966 32.6493 43 37.3333C35.671 37.8537 28.3418 38 21 38C8.03703 38 46.9259 38 59.8889 38C102.962 38 146.038 37.8545 189.111 38C194.928 38.0197 201.263 36.0305 206.556 38.4444C211.15 40.5401 196.763 40.9715 191.778 41.7778C155.844 47.5898 119.636 52.3352 83.4444 56.2222C72.6993 57.3763 62.0225 58.1895 51.2222 58C45.2896 57.8959 53.856 56.5044 55.2222 56.2222C91.7495 48.6785 128.645 42.958 165.556 37.6667C185.054 34.8714 205.139 31.2238 224.889 30.1111C228.84 29.8885 231.952 30 224.889 30C203.067 30 182.318 32.2191 160.833 35.3889C160.056 35.5035 152.051 36 159.056 36C169.074 36 179.093 36 189.111 36C192.614 36 197.587 36 189.444 36C171.944 36 154.444 36 136.944 36C113.764 36 92.3218 35.4725 69.6667 30.7222C68.8483 30.5506 63.0664 30.2939 63.1667 28.3889C63.2788 26.2591 67.0456 26.3899 69.1667 26.1667C77.8891 25.2485 91.798 25.1962 99.6667 25.1111C126.607 24.8199 153.564 25.4189 180.5 24.8333C191.317 24.5982 203.555 24.8049 214.111 21.6667C219.302 20.1234 203.304 20.8659 197.889 20.7778C170.816 20.3372 143.743 20.0443 116.667 20C115.388 19.9979 64.2098 19.6669 64.2222 19.5556C64.3651 18.2698 66.5014 18.2105 67.7778 18C74.3047 16.9234 84.5024 16.6028 90.3333 16.4444C124.627 15.5134 158.939 16.4862 193.222 14.8889C206.37 14.2763 219.569 13.2294 232.667 11.8889C236.94 11.4516 241.503 11.9301 245.444 10.2222C248.232 9.01432 239.371 10.0083 236.333 10C226.444 9.97313 216.556 10 206.667 10C181.74 10 156.812 9.88906 131.889 10.4444C114.317 10.836 96.4706 12.5494 78.8889 12C65.5945 11.5846 105.303 8.80489 118.556 7.66667C137.455 6.04338 156.368 5.15805 175.333 5C177.407 4.98272 183.617 4.76842 181.556 5C168.921 6.41967 156.574 10.3846 144.222 13.2222C120.417 18.6911 96.1808 23.6647 72 27" stroke="#743899" stroke-width="8" stroke-linecap="round"/>
</svg>
